Coordinates
version=1
nRows=10
nColumns=40
inDegrees=yes

Units are S.I. units (second, meters, Newtons, ...)
Angles are in degrees.

endheader
time	pelvis_tilt	pelvis_list	pelvis_rotation	pelvis_tx	pelvis_ty	pelvis_tz	hip_flexion_r	hip_adduction_r	hip_rotation_r	knee_angle_r	knee_angle_r_beta	ankle_angle_r	subtalar_angle_r	mtp_angle_r	hip_flexion_l	hip_adduction_l	hip_rotation_l	knee_angle_l	knee_angle_l_beta	ankle_angle_l	subtalar_angle_l	mtp_angle_l	lumbar_extension	lumbar_bending	lumbar_rotation	arm_flex_r	arm_add_r	arm_rot_r	elbow_flex_r	pro_sup_r	wrist_flex_r	wrist_dev_r	arm_flex_l	arm_add_l	arm_rot_l	elbow_flex_l	pro_sup_l	wrist_flex_l	wrist_dev_l
     46.84000000	     -4.49736965	     -3.26615939	    -13.29413387	      1.11859725	      0.92884812	      0.43492211	     24.65887595	     -2.59842621	     -5.05248291	     17.24970345	     17.24970345	      7.79392137	      8.17024105	      7.43959510	     10.97445029	     -3.94589724	    -14.14455450	     22.00345945	     22.00345945	     16.94190037	    -17.30666060	      2.59448704	    -10.65649356	      6.70753557	      1.10904238	    -20.60565001	    -10.84933112	    -13.43244260	     31.42737196	     46.22123524	      0.00000000	      0.00000000	     42.26444577	    -24.29502863	     -2.84225839	     68.70807062	     47.54854529	      0.00000000	      0.00000000
     46.86257143	     -4.71297877	     -2.91793798	    -13.89194646	      1.11738852	      0.92856168	      0.43940813	     24.36040857	     -2.35029242	     -5.17157732	     15.09419549	     15.09419549	      6.93136091	      9.80276133	      8.37413494	     10.55893688	     -3.87171364	    -14.85921980	     21.37584084	     21.37584084	     16.92515280	    -17.04540724	      2.33012903	    -10.50723795	      6.33554252	      1.14736154	    -20.29361556	    -10.56374114	    -13.21240176	     31.82242193	     46.18999478	      0.00000000	      0.00000000	     43.46867875	    -24.61123818	     -3.18573245	     69.41388268	     47.59572289	      0.00000000	      0.00000000
     46.88514286	     -4.88579523	     -2.53300052	    -14.42937322	      1.11674186	      0.92811660	      0.44395427	     24.24792475	     -2.25831253	     -5.43831094	     13.88137799	     13.88137799	      6.19409137	     11.36466454	      8.84654739	     10.08571932	     -3.73949602	    -15.57253250	     20.75495351	     20.75495351	     16.87920897	    -16.75431372	      1.88941630	    -10.35307065	      5.98443714	      1.25484283	    -19.90028012	    -10.31549527	    -12.99633611	     32.26967654	     46.15795901	      0.00000000	      0.00000000	     44.44747666	    -24.77181468	     -3.64859080	     70.28098294	     47.65167958	      0.00000000	      0.00000000
     46.90771429	     -5.05332160	     -2.15608712	    -14.84996721	      1.11656894	      0.92758302	      0.44860724	     24.19524663	     -2.20649429	     -5.56321261	     13.25241213	     13.25241213	      5.53529247	     12.49760035	      8.85707855	      9.61419276	     -3.59999286	    -16.16265011	     20.17723320	     20.17723320	     16.83104733	    -16.45449927	      1.40552811	    -10.19373306	      5.67118192	      1.34454578	    -19.39526506	    -10.11105459	    -12.79685799	     32.67726317	     46.13022126	      0.00000000	      0.00000000	     45.21194757	    -24.79557970	     -4.15176689	     71.16451016	     47.70833505	      0.00000000	      0.00000000
     46.93028571	     -5.10941933	     -1.91085816	    -15.19931631	      1.11729813	      0.92700444	      0.45346801	     23.93780503	     -2.08655810	     -5.75028695	     12.88068653	     12.88068653	      3.93115067	     13.40875779	      5.16611457	      8.79242410	     -3.54575386	    -16.83290954	     19.24233653	     19.24233653	     15.72498856	    -16.52908830	     -1.69964343	    -10.14109901	      5.58923277	      0.72872628	    -18.65626302	    -10.35340836	    -11.42778460	     33.54470689	     46.00749730	      0.00000000	      0.00000000	     44.42677480	    -24.97076689	     -6.88280702	     73.91550971	     47.94255742	      0.00000000	      0.00000000
     46.95285714	     -5.15872653	     -1.61947598	    -15.42880707	      1.11842924	      0.92650460	      0.45848634	     23.70993948	     -1.99076503	     -5.41436080	     12.82590832	     12.82590832	      2.52024984	     13.36739003	      1.61507530	      8.07403201	     -3.41269071	    -17.20502011	     18.57415679	     18.57415679	     15.54281083	    -16.35181684	     -2.49030483	     -9.98983844	      5.42745774	      0.64358774	    -17.79059666	    -10.49974661	    -10.09100669	     33.19505458	     45.94565630	      0.00000000	      0.00000000	     44.47987029	    -24.96490323	     -7.57206983	     75.07390526	     48.01215186	      0.00000000	      0.00000000
     46.97542857	     -5.25086405	     -1.45619791	    -15.53421062	      1.11997258	      0.92610264	      0.46365212	     23.66751398	     -1.83530023	     -5.17530565	     13.39896666	     13.39896666	      2.41615722	     13.20651851	      1.21202557	      7.41259974	     -3.42645019	    -17.40426247	     18.04446793	     18.04446793	     15.67216765	    -16.10662045	     -2.49035666	     -9.80075391	      5.46040413	      0.77383670	    -17.22826193	    -10.52712139	    -10.03144824	     33.35191316	     45.94017608	      0.00000000	      0.00000000	     44.72356495	    -24.74958949	     -7.66241023	     75.44412853	     48.02634064	      0.00000000	      0.00000000
     46.99800000	     -5.22916485	     -1.26774143	    -15.57532872	      1.12204080	      0.92580887	      0.46911304	     23.45640044	     -1.67367866	     -4.49537297	     13.93643381	     13.93643381	      1.67046069	     12.25019107	     -1.87136702	      6.47231185	     -3.34854774	    -17.59878976	     17.22630609	     17.22630609	     15.49354678	    -15.83591856	     -3.09277800	     -9.71305957	      5.40921038	      0.62567118	    -16.52453497	    -10.66027852	     -9.81387111	     33.06754606	     45.94713606	      0.00000000	      0.00000000	     44.13892132	    -24.44227215	     -9.01454217	     77.10068961	     48.14013464	      0.00000000	      0.00000000
     47.02057143	     -5.24157299	     -1.18894812	    -15.47835184	      1.12434081	      0.92562384	      0.47469404	     23.36733891	     -1.48571012	     -4.16850497	     14.85353355	     14.85353355	      1.84414655	     11.60407247	     -2.82421701	      5.59211914	     -3.40758325	    -17.64971493	     16.51650950	     16.51650950	     15.53933421	    -15.46256078	     -3.13547667	     -9.56175371	      5.45893528	      0.54233856	    -15.98840724	    -10.86286720	     -9.77473259	     33.02757098	     45.95222619	      0.00000000	      0.00000000	     43.97555967	    -24.25540387	     -9.17901639	     77.47524572	     48.15547934	      0.00000000	      0.00000000
     47.04314286	     -5.21057726	     -1.23887921	    -15.27430238	      1.12685438	      0.92556591	      0.48047794	     23.19659990	     -1.19348147	     -3.90414908	     15.82589214	     15.82589214	      2.28229998	     10.82290556	     -3.48892251	      4.63902850	     -3.61221563	    -17.61403914	     15.83052536	     15.83052536	     15.58589535	    -15.05539081	     -3.07561011	     -9.49542711	      5.63035813	      0.53624240	    -15.63577297	    -11.14573130	     -9.81480684	     32.98897189	     45.96052951	      0.00000000	      0.00000000	     43.69530032	    -23.97303781	     -9.30424415	     77.80018134	     48.16693457	      0.00000000	      0.00000000
